<svg width="36" height="36" viewBox="0 0 36 36" fill="none" xmlns="http://www.w3.org/2000/svg">
<circle cx="18" cy="18" r="18" fill="white" fill-opacity="0.17"/>
<path d="M18 15.4062C16 15.4062 14.4062 17.0312 14.4062 19C14.4062 21 16 22.5938 18 22.5938C19.9688 22.5938 21.5938 21 21.5938 19C21.5938 17.0312 19.9688 15.4062 18 15.4062ZM18 21.3438C16.7188 21.3438 15.6562 20.3125 15.6562 19C15.6562 17.7188 16.6875 16.6875 18 16.6875C19.2812 16.6875 20.3125 17.7188 20.3125 19C20.3125 20.3125 19.2812 21.3438 18 21.3438ZM22.5625 15.2812C22.5625 14.8125 22.1875 14.4375 21.7188 14.4375C21.25 14.4375 20.875 14.8125 20.875 15.2812C20.875 15.75 21.25 16.125 21.7188 16.125C22.1875 16.125 22.5625 15.75 22.5625 15.2812ZM24.9375 16.125C24.875 15 24.625 14 23.8125 13.1875C23 12.375 22 12.125 20.875 12.0625C19.7188 12 16.25 12 15.0938 12.0625C13.9688 12.125 13 12.375 12.1562 13.1875C11.3438 14 11.0938 15 11.0312 16.125C10.9688 17.2812 10.9688 20.75 11.0312 21.9062C11.0938 23.0312 11.3438 24 12.1562 24.8438C13 25.6562 13.9688 25.9062 15.0938 25.9688C16.25 26.0312 19.7188 26.0312 20.875 25.9688C22 25.9062 23 25.6562 23.8125 24.8438C24.625 24 24.875 23.0312 24.9375 21.9062C25 20.75 25 17.2812 24.9375 16.125ZM23.4375 23.125C23.2188 23.75 22.7188 24.2188 22.125 24.4688C21.1875 24.8438 19 24.75 18 24.75C16.9688 24.75 14.7812 24.8438 13.875 24.4688C13.25 24.2188 12.7812 23.75 12.5312 23.125C12.1562 22.2188 12.25 20.0312 12.25 19C12.25 18 12.1562 15.8125 12.5312 14.875C12.7812 14.2812 13.25 13.8125 13.875 13.5625C14.7812 13.1875 16.9688 13.2812 18 13.2812C19 13.2812 21.1875 13.1875 22.125 13.5625C22.7188 13.7812 23.1875 14.2812 23.4375 14.875C23.8125 15.8125 23.7188 18 23.7188 19C23.7188 20.0312 23.8125 22.2188 23.4375 23.125Z" fill="#787878"/>
</svg>
