<svg width="36" height="36" viewBox="0 0 36 36" fill="none" xmlns="http://www.w3.org/2000/svg">
<circle cx="18" cy="18" r="18" fill="white" fill-opacity="0.17"/>
<path d="M21.5938 21.4375C22.5938 20.7812 23.0625 20.4062 22.6562 19.5938C22.4375 19.1562 21.7812 18.7812 20.9688 19.4375C20.9688 19.4375 19.8125 20.3438 18 20.3438C16.1562 20.3438 15.0312 19.4375 15.0312 19.4375C14.1875 18.75 13.5625 19.1562 13.3125 19.5938C12.9375 20.4062 13.375 20.7812 14.375 21.4375C15.25 22 16.4375 22.2188 17.2188 22.2812L16.5625 22.9375C15.6562 23.8438 14.8125 24.7188 14.1875 25.3125C13.3125 26.1875 14.7188 27.5938 15.625 26.75L18 24.3438C18.9062 25.2812 19.7812 26.1562 20.375 26.75C21.25 27.625 22.6875 26.2188 21.8125 25.3125L19.4375 22.9375L18.7812 22.2812C19.5625 22.2188 20.7188 22 21.5938 21.4375ZM13.9375 15.0625C13.9375 17.3125 15.75 19.125 18 19.125C20.2188 19.125 22.0312 17.3125 22.0312 15.0625C22.0312 12.8125 20.2188 11 18 11C15.75 11 13.9375 12.8125 13.9375 15.0625ZM16 15.0625C16 13.9688 16.875 13.0625 18 13.0625C19.0938 13.0625 19.9688 13.9688 19.9688 15.0625C19.9688 16.1562 19.0938 17.0625 18 17.0625C16.875 17.0625 16 16.1562 16 15.0625Z" fill="#787878"/>
</svg>
