<svg width="36" height="36" viewBox="0 0 36 36" fill="none" xmlns="http://www.w3.org/2000/svg">
<circle cx="18" cy="18" r="18" fill="white" fill-opacity="0.17"/>
<path d="M26.0312 14.6875C26.125 14.3125 26.0312 14 25.4688 14H23.625C23.1562 14 22.9375 14.25 22.8125 14.5312C22.8125 14.5312 21.875 16.8125 20.5625 18.3125C20.125 18.7188 19.9375 18.875 19.6875 18.875C19.5938 18.875 19.4062 18.7188 19.4062 18.3438V14.6875C19.4062 14.2188 19.2812 14 18.875 14H16C15.6875 14 15.5312 14.2188 15.5312 14.4375C15.5312 14.875 16.1875 14.9688 16.25 16.2188V18.9375C16.25 19.5312 16.1562 19.6562 15.9062 19.6562C15.2812 19.6562 13.7812 17.3438 12.875 14.7188C12.6875 14.2188 12.5 14 12.0312 14H10.1875C9.6875 14 9.5625 14.25 9.5625 14.5312C9.5625 15.0312 10.1875 17.4375 12.4688 20.6562C14 22.8438 16.1562 24 18.0938 24C19.25 24 19.4062 23.75 19.4062 23.3125C19.4062 21.2188 19.3125 21 19.875 21C20.1562 21 20.625 21.1562 21.7188 22.2188C22.9688 23.4688 23.1875 24 23.875 24H25.7188C26.25 24 26.5 23.75 26.3438 23.2188C26 22.1562 23.6562 19.9062 23.5312 19.75C23.25 19.4062 23.3438 19.25 23.5312 18.9375C23.5312 18.9375 25.7812 15.75 26.0312 14.6875Z" fill="#787878"/>
</svg>
