<?xml version="1.0" encoding="utf-8"?><svg viewBox="0 0 118 67" xmlns="http://www.w3.org/2000/svg" xmlns:xlink="http://www.w3.org/1999/xlink"><style>:root>svg{display:none}:root>svg:target{display:block}</style><svg fill="none" viewBox="0 0 27 27" id="cart" xmlns="http://www.w3.org/2000/svg"><path d="M1 1h2.778l.555 2.778m0 0H26l-5.556 11.11H6.556M4.333 3.779l2.223 11.11m0 0L3.37 18.075c-.875.875-.256 2.37.982 2.37h16.091m0 0a2.778 2.778 0 100 5.556 2.778 2.778 0 000-5.556zm-11.11 2.778a2.778 2.778 0 11-5.556 0 2.778 2.778 0 015.555 0z" stroke="#fff" stroke-width="1.8" stroke-linecap="round" stroke-linejoin="round"/></svg><svg fill="none" viewBox="0 0 8 5" id="cartarrow" xmlns="http://www.w3.org/2000/svg"><path d="M3.646 4.354a.5.5 0 00.708 0l3.182-3.182a.5.5 0 10-.708-.708L4 3.293 1.172.464a.5.5 0 10-.708.708l3.182 3.182zM3.5 3v1h1V3h-1z" fill="#fff"/></svg><svg fill="none" viewBox="0 0 18 14" id="catalog" xmlns="http://www.w3.org/2000/svg"><path d="M1 1h16M1 7h8m-8 6h16" stroke="#fff" stroke-width="2" stroke-linecap="round" stroke-linejoin="round"/></svg><svg fill="none" viewBox="0 0 18 18" id="findicon" xmlns="http://www.w3.org/2000/svg"><path d="M17 17l-4-4m2-5a7.002 7.002 0 01-9.679 6.467A7 7 0 1115 8z" stroke="#A0A0A0" stroke-width="2" stroke-linecap="round" stroke-linejoin="round"/></svg><svg fill="none" viewBox="0 0 14 17" id="location" xmlns="http://www.w3.org/2000/svg"><path fill-rule="evenodd" clip-rule="evenodd" d="M2.05 2.05a7 7 0 119.9 9.9L7 16.9l-4.95-4.95a7.001 7.001 0 010-9.9zM7 9a2 2 0 100-4 2 2 0 000 4z" fill="#414141"/></svg><svg fill="none" viewBox="0 0 118 67" id="logo" xmlns="http://www.w3.org/2000/svg"><path d="M33.657 36.962v-6.924H22.066V11.276l6.172-3.884V0l-13.38 7.86v51.28L28.238 67v-7.393l-6.172-3.883V36.962h11.59z" fill="#8C0014"/><path d="M6.596 30.038V11.326L2.42 13.75a4.876 4.876 0 00-1.772 1.777A4.834 4.834 0 000 17.945v31.11c0 .848.223 1.681.648 2.417a4.873 4.873 0 001.772 1.776l4.176 2.429V36.962h5.843v-6.924H6.596z" fill="#707070"/><path d="M55.175 16.324a1.284 1.284 0 011.058.524c.138.175.23.38.27.599.023.12.032.241.03.363v2.192H43.891v2.148h8.852v3.228H43.91l-.01.011v2.276h12.622c.006 0 .01.004.01.011v2.149a1.456 1.456 0 01-.341.92 1.283 1.283 0 01-1.037.47H41.556a1.22 1.22 0 01-.38-.085 1.392 1.392 0 01-.757-.727 1.708 1.708 0 01-.12-.642v-7.514c-.007-.363-.01-1.546-.01-3.55v-.982c.006-.26.078-.514.21-.738.126-.21.304-.383.518-.502.103-.057.214-.097.33-.119a.848.848 0 01.18-.032h13.648zM63.845 31.214c-.51-.02-.886-.042-1.127-.064-.186 0-.562-.068-1.128-.203a5.358 5.358 0 01-.977-.338 3.56 3.56 0 01-.937-.684c-.819-.784-1.228-2.163-1.227-4.136l.08-7.547c0-.507.13-.924.389-1.25.36-.442.795-.664 1.306-.664h1.986v9.958c.003.128.03.255.08.374.18.391.453.587.818.588h9.24c.265 0 .495-.125.688-.374.14-.15.21-.389.21-.717V16.33s.006-.006.02-.006h1.975c.23.001.455.056.658.16a1.722 1.722 0 01.898.963c.06.17.1.345.12.524.06 4.677.09 7.31.09 7.899 0 1.076-.142 2.01-.426 2.8a4.117 4.117 0 01-.329.685c-.22.342-.497.645-.819.897-.263.18-.543.334-.837.46-.284.127-.713.245-1.287.352-.543.09-1.092.14-1.643.15h-7.82zM81.135 16.324h10.117c1.362 0 2.54.228 3.532.685.2.085.356.156.469.214.166.1.343.217.529.352.884.578 1.513 1.395 1.885 2.451.202.578.303 1.185.3 1.796v.139a5.28 5.28 0 01-.45 2.16 8.391 8.391 0 01-.349.64c-.12.17-.262.352-.425.546a3.04 3.04 0 01-.24.267l-.1.107-.08.064-.149.128a8.979 8.979 0 01-.529.374c-.18.1-.343.189-.489.268a5.966 5.966 0 00-.21.106c-.267.117-.54.22-.817.31.825.912 1.39 1.575 1.696 1.988l.609.738c.378.47.74.908 1.087 1.315.073.066.137.141.19.224H93.4a1.59 1.59 0 01-.58-.084 2.305 2.305 0 01-.218-.14 2.265 2.265 0 01-.47-.502 108.718 108.718 0 01-2.005-2.64l-.35-.481a.643.643 0 00-.119.021c-.412 0-1.653.008-3.722.022H83.4v2.426a1.46 1.46 0 01-.549 1.154c-.218.164-.484.25-.757.246h-2.286V17.821c-.007-.196.02-.39.08-.577.036-.105.082-.205.14-.3a1.21 1.21 0 01.17-.202 1.299 1.299 0 01.937-.418zm2.265 3.86v3.366h8.171c.638 0 1.124-.118 1.457-.353.237-.16.42-.387.529-.651.096-.223.143-.464.14-.706 0-.52-.223-.954-.669-1.304a1.382 1.382 0 00-.21-.129.244.244 0 01-.06-.032 2.14 2.14 0 00-.549-.169c-.079 0-.189-.006-.328-.02l-8.48-.003zM104.94 16.324h7.15c1.203 0 2.327.389 3.372 1.166.233.165.45.35.648.556.04.035.086.074.13.117.325.4.562.706.708.92A6.695 6.695 0 01118 22.735v2.063a6.658 6.658 0 01-1.427 4.2 5.633 5.633 0 01-.738.749 5.693 5.693 0 01-3.761 1.464h-7.114c-1.283 0-2.467-.424-3.551-1.272a10.106 10.106 0 01-.759-.737 5.011 5.011 0 01-.668-.92 6.533 6.533 0 01-.948-3.44v-2.148a6.573 6.573 0 011.307-3.972c.126-.157.332-.399.618-.727.228-.219.475-.417.739-.592 1.017-.72 2.097-1.08 3.242-1.08zm-2.304 6.468v1.944c0 .527.103.965.309 1.315.04.128.16.31.359.545a2.237 2.237 0 001.716.77h6.99c.778 0 1.41-.339 1.896-1.015.134-.183.244-.382.329-.592.117-.344.172-.705.16-1.068v-1.817c0-.463-.046-.81-.139-1.037a2.525 2.525 0 00-1.034-1.299 2.159 2.159 0 00-1.192-.352h-7.034c-.772 0-1.411.349-1.916 1.047-.12.176-.217.366-.289.566a2.662 2.662 0 00-.155.993z" fill="#8C0014"/><path d="M41.577 35.785h2.315v4.255c-.002.365.137.717.389.983a1.299 1.299 0 001 .416h9.586l.02-.02v-5.634h2.324c.283 0 .57.132.858.396a1.474 1.474 0 01.409 1.058v12.014a1.418 1.418 0 01-.609 1.206c-.206.138-.45.213-.698.213h-2.285V46.85c0-.307-.037-.535-.11-.685a2.023 2.023 0 00-.18-.352 1.303 1.303 0 00-1.067-.524h-9.637v5.387h-2.298c-.366 0-.686-.153-.959-.46a1.52 1.52 0 01-.349-1.026V37.282c0-.592.24-1.037.719-1.336.174-.1.37-.156.572-.161zM68.525 35.785h2.922c.593 0 1.089.264 1.487.791.15.234.283.476.4.727a247.325 247.325 0 011.606 3.015c.272.52.584 1.111.936 1.775 2.187 4.139 3.312 6.255 3.374 6.348l1.167 2.234h-3.073c-.811 0-1.41-.41-1.796-1.229-.272-.499-.47-.87-.595-1.112a6.4 6.4 0 00-.18-.332h-9.54a.072.072 0 00-.046.022.138.138 0 00-.034.085l-.899 1.69c-.405.585-.944.877-1.617.877h-3.042c-.013 0-.02-.002-.02-.005v-.016c1.47-2.787 2.75-5.203 3.841-7.248l2.096-3.955c.824-1.56 1.257-2.372 1.297-2.436.097-.198.211-.388.34-.567.386-.442.844-.663 1.376-.664zm1.466 3.179l-3.123 5.89h6.245c-2.043-3.837-3.083-5.8-3.122-5.89zM82.99 35.785h2.306a.471.471 0 01-.01.107.096.096 0 00-.01.032v10.283l.02.021h-.02c.01.01.017.023.02.038v.558h12.767v2.367c0 .656-.28 1.122-.839 1.4a1.285 1.285 0 01-.448.085H83.01c-.454 0-.823-.21-1.106-.63a1.332 1.332 0 01-.2-.6v-.106l-.02-12.171c.003-.358.142-.702.389-.962a1.233 1.233 0 01.917-.422zM101.318 35.785h2.305a.43.43 0 01-.019.14v10.282l.019.021h-.019c.01.01.017.023.019.038v.558h12.767v2.367c0 .656-.279 1.122-.838 1.4a1.284 1.284 0 01-.449.085h-13.764c-.454 0-.823-.21-1.107-.63a1.344 1.344 0 01-.2-.6v-.106l-.019-12.171c.003-.358.142-.702.389-.962a1.231 1.231 0 01.916-.422z" fill="#707070"/></svg><svg fill="none" viewBox="0 0 14 14" id="phone" xmlns="http://www.w3.org/2000/svg"><path d="M0 .875A.875.875 0 01.875 0h1.884a.875.875 0 01.863.732l.647 3.88a.875.875 0 01-.472.928l-1.355.676a9.658 9.658 0 005.342 5.342l.677-1.355a.875.875 0 01.927-.472l3.88.647a.874.874 0 01.732.863v1.884a.875.875 0 01-.875.875h-1.75C5.093 14 0 8.908 0 2.625V.875z" fill="#414141"/></svg></svg>