<svg width="27" height="27" viewBox="0 0 27 27" fill="none" xmlns="http://www.w3.org/2000/svg">
<path d="M1 1H3.77778L4.33333 3.77778M4.33333 3.77778H26L20.4444 14.8889H6.55556M4.33333 3.77778L6.55556 14.8889M6.55556 14.8889L3.37083 18.0736C2.49583 18.9486 3.11528 20.4444 4.35278 20.4444H20.4444M20.4444 20.4444C19.7077 20.4444 19.0012 20.7371 18.4803 21.258C17.9593 21.779 17.6667 22.4855 17.6667 23.2222C17.6667 23.9589 17.9593 24.6655 18.4803 25.1864C19.0012 25.7073 19.7077 26 20.4444 26C21.1812 26 21.8877 25.7073 22.4086 25.1864C22.9296 24.6655 23.2222 23.9589 23.2222 23.2222C23.2222 22.4855 22.9296 21.779 22.4086 21.258C21.8877 20.7371 21.1812 20.4444 20.4444 20.4444ZM9.33333 23.2222C9.33333 23.9589 9.04067 24.6655 8.51974 25.1864C7.99881 25.7073 7.29227 26 6.55556 26C5.81884 26 5.1123 25.7073 4.59137 25.1864C4.07044 24.6655 3.77778 23.9589 3.77778 23.2222C3.77778 22.4855 4.07044 21.779 4.59137 21.258C5.1123 20.7371 5.81884 20.4444 6.55556 20.4444C7.29227 20.4444 7.99881 20.7371 8.51974 21.258C9.04067 21.779 9.33333 22.4855 9.33333 23.2222Z" stroke="white" stroke-width="1.8" stroke-linecap="round" stroke-linejoin="round"/>
</svg>
