<svg width="118" height="67" viewBox="0 0 118 67" fill="none" xmlns="http://www.w3.org/2000/svg">
<path d="M33.6569 36.9624V30.0376H22.066V11.2758L28.2385 7.39214V0L14.8577 7.86038V30.0376V36.9624V59.1396L28.2385 67V59.607L22.066 55.7242V36.9624H33.6569Z" fill="#8C0014"/>
<path d="M6.59636 30.0376V11.3257L2.4198 13.7514C1.6832 14.18 1.07233 14.7925 0.647834 15.5281C0.223342 16.2637 4.97313e-06 17.0967 3.48797e-08 17.9445V49.0555C-0.000101894 49.9032 0.223198 50.7362 0.647707 51.4716C1.07222 52.2071 1.68315 52.8194 2.4198 53.2477L6.59636 55.6768V36.9624H12.4386V30.0376H6.59636Z" fill="#707070"/>
<path d="M55.1755 16.3242C55.3813 16.3204 55.585 16.366 55.7692 16.4573C55.9534 16.5485 56.1127 16.6827 56.2334 16.8482C56.3711 17.0228 56.4635 17.2283 56.5024 17.4466C56.5256 17.5664 56.5355 17.6882 56.5322 17.8101V20.0017H43.8918V22.1502H52.7437V25.378H43.9114L43.9012 25.389V27.6651H56.5228C56.5288 27.6651 56.5322 27.6693 56.5322 27.6761V29.8246C56.5286 30.1609 56.4083 30.4857 56.1917 30.7442C56.1057 30.8475 56.0048 30.9375 55.8921 31.0113C55.6728 31.1523 55.4153 31.2231 55.1542 31.2141H41.5571C41.4269 31.2064 41.2987 31.1779 41.1775 31.1296C40.8392 30.9948 40.5673 30.7339 40.42 30.4027C40.3391 30.1985 40.2984 29.9807 40.3 29.7612V22.2474C40.2932 21.8839 40.2898 20.7007 40.2898 18.6975V17.7146C40.2963 17.4551 40.3683 17.2014 40.4992 16.9767C40.6255 16.7675 40.8044 16.5945 41.0184 16.4747C41.1212 16.4181 41.2323 16.3782 41.3478 16.3563C41.4063 16.3392 41.4665 16.3284 41.5274 16.3242H55.1755Z" fill="#8C0014"/>
<path d="M63.8452 31.2141C63.3345 31.1933 62.9589 31.1719 62.7183 31.1499C62.5316 31.1499 62.1557 31.0823 61.5905 30.9471C61.2543 30.8662 60.9267 30.7529 60.6126 30.609C60.2649 30.4335 59.9486 30.2025 59.6763 29.9252C58.8575 29.1409 58.4484 27.7621 58.449 25.7888L58.529 18.242C58.529 17.7349 58.6586 17.3182 58.918 16.9919C59.2771 16.5496 59.7126 16.3284 60.2245 16.3284H62.2102V26.2858C62.2131 26.4144 62.2402 26.5414 62.2902 26.6602C62.4701 27.0512 62.7427 27.247 63.1081 27.2476H72.3473C72.6134 27.2476 72.8429 27.1231 73.0359 26.874C73.1755 26.7241 73.2452 26.4852 73.2452 26.1573V16.3301C73.2452 16.3301 73.2521 16.3242 73.2657 16.3242H75.2412C75.4702 16.3253 75.6957 16.3803 75.8991 16.4848C76.1052 16.5785 76.2907 16.7117 76.4448 16.8767C76.5989 17.0418 76.7186 17.2355 76.7971 17.4466C76.8567 17.6163 76.897 17.7921 76.9171 17.9707C76.9767 22.6475 77.0065 25.2805 77.0065 25.8699C77.0065 26.9462 76.8646 27.8795 76.5809 28.6701C76.4927 28.9078 76.3828 29.137 76.2523 29.3547C76.0317 29.6971 75.755 30.0005 75.4335 30.2523C75.1701 30.4323 74.8896 30.5863 74.596 30.7121C74.3123 30.8394 73.8833 30.9569 73.3091 31.0645C72.7659 31.1543 72.2169 31.2043 71.6664 31.2141H63.8452Z" fill="#8C0014"/>
<path d="M81.1352 16.3242H91.2518C92.6137 16.3242 93.7911 16.5524 94.7841 17.0088C94.9832 17.0939 95.1396 17.1652 95.253 17.2227C95.4193 17.3224 95.5955 17.4399 95.7816 17.5751C96.6662 18.1527 97.2946 18.9697 97.6669 20.0262C97.8692 20.6035 97.9705 21.211 97.9665 21.8223V21.9609C97.9705 22.704 97.8174 23.4397 97.5171 24.1204C97.4246 24.3125 97.3083 24.5263 97.1681 24.7619C97.0484 24.9309 96.9065 25.1126 96.7425 25.307C96.6682 25.4006 96.5883 25.4898 96.5034 25.5741L96.4038 25.6806L96.3238 25.7448L96.174 25.8733C96.054 25.9654 95.9042 26.0728 95.7246 26.1936C95.6967 26.209 95.6702 26.2269 95.6454 26.2469C95.4655 26.3466 95.3024 26.4359 95.156 26.5148C95.0828 26.5503 95.013 26.5858 94.9466 26.6213C94.6794 26.7382 94.4064 26.8418 94.1287 26.9315C94.9537 27.8432 95.5192 28.5058 95.825 28.9194L96.4336 29.6573C96.812 30.1272 97.1744 30.5653 97.5205 30.9716C97.5938 31.0376 97.6576 31.1132 97.7103 31.1964H93.4001C93.2036 31.2043 93.0073 31.1756 92.8213 31.1119C92.7822 31.0899 92.7456 31.0688 92.7124 31.0476C92.6792 31.0265 92.6417 31.0012 92.6026 30.9724C92.4215 30.8297 92.2633 30.6604 92.1336 30.4704C91.5009 29.6652 90.8325 28.785 90.1283 27.83L89.7785 27.349C89.7382 27.3523 89.6983 27.3594 89.6593 27.3702C89.2468 27.3702 88.0061 27.3775 85.9373 27.3921H83.4001V29.8179C83.4021 30.039 83.3537 30.2576 83.2587 30.4575C83.1636 30.6575 83.0243 30.8335 82.8511 30.9724C82.6332 31.1359 82.3666 31.2225 82.0936 31.2184H79.8082V17.8211C79.8011 17.6255 79.8282 17.4302 79.8882 17.2438C79.9236 17.1393 79.9704 17.0389 80.0278 16.9446C80.0769 16.871 80.134 16.803 80.1981 16.7417C80.3175 16.6125 80.4622 16.5089 80.6233 16.4371C80.7844 16.3653 80.9586 16.3269 81.1352 16.3242ZM83.4001 20.1834V23.5499H91.571C92.2094 23.5499 92.6951 23.4324 93.0282 23.1974C93.2649 23.0364 93.4487 22.8098 93.5567 22.5458C93.6529 22.3229 93.7004 22.0824 93.6963 21.84C93.6963 21.3205 93.4736 20.8858 93.0282 20.5359C92.9621 20.4869 92.8917 20.4439 92.8179 20.4074C92.7967 20.3995 92.7766 20.3887 92.7584 20.3753C92.5839 20.2945 92.3992 20.2377 92.2094 20.2062C92.1302 20.2062 92.0204 20.1995 91.8808 20.1851L83.4001 20.1834Z" fill="#8C0014"/>
<path d="M104.94 16.3242H112.09C113.293 16.3242 114.417 16.7127 115.462 17.4898C115.695 17.6548 115.912 17.8409 116.11 18.0459C116.15 18.0814 116.196 18.1203 116.24 18.1634C116.565 18.5623 116.802 18.8686 116.948 19.0821C117.645 20.1745 118.01 21.443 118 22.7359V24.7991C118.019 26.3195 117.516 27.801 116.573 28.9997C116.351 29.2713 116.104 29.5217 115.835 29.7477C114.805 30.6778 113.467 31.1991 112.074 31.2125H104.96C103.677 31.2125 102.493 30.7884 101.409 29.9404C101.143 29.7078 100.89 29.4615 100.65 29.2026C100.393 28.9223 100.169 28.6141 99.9821 28.2838C99.3523 27.2455 99.0241 26.0543 99.0339 24.8422V22.6954C99.025 21.2656 99.4838 19.8715 100.341 18.7229C100.467 18.5663 100.673 18.324 100.959 17.996C101.187 17.777 101.434 17.579 101.698 17.4044C102.715 16.6843 103.795 16.3242 104.94 16.3242ZM102.636 22.7917V24.7357C102.636 25.2631 102.739 25.7015 102.945 26.0508C102.985 26.1793 103.105 26.361 103.304 26.596C103.517 26.8401 103.78 27.0354 104.077 27.1682C104.373 27.301 104.695 27.3682 105.02 27.3651H112.01C112.788 27.3651 113.42 27.027 113.906 26.3508C114.04 26.1678 114.15 25.9691 114.235 25.7592C114.352 25.4154 114.407 25.0536 114.395 24.6909V22.8737C114.395 22.4105 114.349 22.0648 114.256 21.8366C114.068 21.3006 113.704 20.8432 113.222 20.5384C112.868 20.3067 112.454 20.1841 112.03 20.1859H104.996C104.224 20.1859 103.585 20.535 103.08 21.2332C102.96 21.409 102.863 21.5993 102.791 21.7994C102.677 22.1176 102.624 22.4542 102.636 22.7917Z" fill="#8C0014"/>
<path d="M41.5768 35.785H43.8919V40.0398C43.8896 40.4049 44.0289 40.7568 44.2809 41.0227C44.4075 41.1596 44.5624 41.2678 44.735 41.3397C44.9076 41.4116 45.0939 41.4456 45.281 41.4394H54.8665L54.8861 41.4183V35.785H57.2106C57.4943 35.785 57.7803 35.9169 58.0685 36.1806C58.2036 36.3215 58.3093 36.4875 58.3795 36.6691C58.4498 36.8507 58.4832 37.0443 58.4779 37.2388V49.2533C58.4844 49.4884 58.4323 49.7215 58.3261 49.9318C58.2199 50.1421 58.063 50.323 57.8694 50.4586C57.6631 50.5973 57.4198 50.6718 57.1706 50.6724H54.8861V46.8487C54.8861 46.5422 54.8495 46.314 54.7763 46.1641C54.7281 46.0411 54.668 45.923 54.5967 45.8116C54.4734 45.6465 54.3123 45.5129 54.1267 45.4218C53.9411 45.3307 53.7364 45.2847 53.5294 45.2876H43.8919V50.6749H41.5938C41.2278 50.6749 40.9084 50.5217 40.6354 50.2151C40.3967 49.927 40.2726 49.5619 40.2865 49.1891V37.2819C40.2865 36.6902 40.5259 36.2448 41.0048 35.9456C41.179 35.8456 41.3756 35.7904 41.5768 35.785Z" fill="#707070"/>
<path d="M68.5247 35.785H71.4475C72.0399 35.785 72.5356 36.0487 72.9345 36.5761C73.0833 36.8096 73.2166 37.0524 73.3337 37.303C73.3592 37.3445 73.3825 37.3874 73.4035 37.4315C73.4631 37.5312 73.9752 38.4933 74.9398 40.3178C75.2122 40.8379 75.5242 41.4295 75.876 42.0927C78.0629 46.232 79.1876 48.3481 79.25 48.4411L80.4169 50.6749H77.3443C76.5328 50.6749 75.9342 50.2653 75.5484 49.446C75.276 48.9473 75.0774 48.5766 74.9526 48.3337C74.8462 48.1275 74.7823 48.0168 74.773 48.0024H65.2325C65.2153 48.0041 65.1993 48.0119 65.1874 48.0244C65.1665 48.0479 65.1542 48.0776 65.1525 48.1089L64.2545 49.7993C63.8488 50.3836 63.3098 50.6758 62.6374 50.6758H59.5954C59.5818 50.6758 59.575 50.6741 59.575 50.6707V50.6546C61.0446 47.8683 62.325 45.4524 63.4162 43.407C64.2809 41.7758 64.9794 40.4576 65.5117 39.4523C66.3361 37.8921 66.7685 37.0799 66.8088 37.0156C66.9061 36.8177 67.02 36.6283 67.1493 36.4493C67.5346 36.007 67.993 35.7856 68.5247 35.785ZM69.9912 38.9638L66.8684 44.854H73.1132C71.0705 41.0174 70.0298 39.054 69.9912 38.9638Z" fill="#707070"/>
<path d="M82.9907 35.785H85.2956C85.2963 35.8211 85.2929 35.8571 85.2854 35.8923C85.2804 35.9024 85.2772 35.9133 85.276 35.9245V46.2072L85.2956 46.2283H85.276C85.2866 46.2382 85.2935 46.2513 85.2956 46.2655V46.8242H98.0628V49.1908C98.0628 49.8466 97.7833 50.3135 97.2244 50.5913C97.0812 50.646 96.9293 50.6746 96.7758 50.6758H83.0111C82.5572 50.6758 82.1884 50.4656 81.9046 50.0453C81.7909 49.8645 81.7223 49.6593 81.7046 49.4469V49.3395L81.6851 37.1686C81.6882 36.8108 81.8271 36.4673 82.074 36.2068C82.1882 36.0762 82.3289 35.9711 82.4869 35.8984C82.6449 35.8257 82.8166 35.7871 82.9907 35.785Z" fill="#707070"/>
<path d="M101.318 35.785H103.623C103.624 35.8211 103.621 35.8571 103.613 35.8923C103.608 35.9024 103.605 35.9133 103.604 35.9245V46.2072L103.623 46.2283H103.604C103.614 46.2382 103.621 46.2513 103.623 46.2655V46.8242H116.39V49.1908C116.39 49.8466 116.111 50.3135 115.552 50.5913C115.409 50.646 115.257 50.6746 115.103 50.6758H101.339C100.885 50.6758 100.516 50.4656 100.232 50.0453C100.119 49.8645 100.05 49.6593 100.032 49.4469V49.3395L100.013 37.1686C100.016 36.8108 100.155 36.4673 100.402 36.2068C100.516 36.0762 100.657 35.9711 100.815 35.8984C100.973 35.8257 101.144 35.7871 101.318 35.785Z" fill="#707070"/>
</svg>
